<svg xmlns="http://www.w3.org/2000/svg" width="280" height="300" viewBox="0 0 280 300">
  <defs>
    <!-- Eye opening mask -->
    <mask id="eyeMask">
      <rect x="0" y="0" width="280" height="300" fill="#000"/>
      <path fill="#fff" d="M 60 96 Q 140 140 220 96 Q 140 140 60 96 Z">
        <animate attributeName="d" dur="3s" repeatCount="indefinite"
          values="
            M 60 96 Q 140 140 220 96 Q 140 140 60 96 Z;
            M 60 86 Q 140 64 220 86 Q 140 140 60 126 Z;
            M 60 86 Q 140 64 220 86 Q 140 140 60 126 Z;
            M 60 96 Q 140 140 220 96 Q 140 140 60 96 Z"
          keyTimes="0;0.14;0.78;1"
        />
      </path>
    </mask>
  </defs>

  <!-- Screen + stand -->
  <g fill="none" stroke="#000" stroke-width="14" stroke-linecap="round" stroke-linejoin="round">
    <rect x="28" y="24" width="224" height="164" rx="20" />
    <rect x="132" y="188" width="16" height="28" rx="4" fill="#000" stroke="none" />
    <line x1="108" y1="230" x2="172" y2="230" />
  </g>

  <!-- Lower lid -->
  <path fill="none" stroke="#000" stroke-width="14" stroke-linecap="round"
    d="M 60 96 Q 140 140 220 96">
    <animate attributeName="d" dur="3s" repeatCount="indefinite"
      values="
        M 60 96 Q 140 140 220 96;
        M 60 126 Q 140 136 220 126;
        M 60 126 Q 140 136 220 126;
        M 60 96 Q 140 140 220 96"
      keyTimes="0;0.14;0.78;1"/>
  </path>

  <!-- Upper lid -->
  <path fill="none" stroke="#000" stroke-width="14" stroke-linecap="round"
    d="M 60 96 Q 140 140 220 96">
    <animate attributeName="d" dur="3s" repeatCount="indefinite"
      values="
        M 60 96 Q 140 140 220 96;
        M 60 86 Q 140 64 220 86;
        M 60 86 Q 140 64 220 86;
        M 60 96 Q 140 140 220 96"
      keyTimes="0;0.14;0.78;1"/>
  </path>

  <!-- Bottom lashes: fade + SCALE Y into nothing (fast) -->
  <!-- We scale around a hinge line near y=112 -->
  <g opacity="1">
    <animate attributeName="opacity" dur="3s" repeatCount="indefinite"
      values="1;0;0;1"
      keyTimes="0;0.06;0.78;1" />

    <!-- hinge setup: translate to hinge Y, scale, translate back -->
    <g transform="translate(0 112)">
      <g transform="scale(1 1)">
        <animateTransform attributeName="transform" type="scale"
          dur="3s" repeatCount="indefinite"
          values="1 1; 1 0.01; 1 0.01; 1 1"
          keyTimes="0;0.06;0.78;1" />
        <g transform="translate(0 -112)" fill="#000" stroke="none">
          <polygon points="82,110 96,118 80,154" />
          <polygon points="110,114 124,120 110,158" />
          <polygon points="134,118 146,118 140,162" />
          <polygon points="156,120 172,114 170,158" />
          <polygon points="184,118 198,110 200,154" />
        </g>
      </g>
    </g>
  </g>

  <!-- Top lashes (mirrored, fade in) -->
  <g fill="#000" opacity="0" transform="translate(0 192) scale(1 -1)">
    <animate attributeName="opacity" dur="3s" repeatCount="indefinite"
      values="0;1;1;0"
      keyTimes="0;0.14;0.78;1" />

    <polygon points="82,110 96,118 80,154" />
    <polygon points="110,114 124,120 110,158" />
    <polygon points="134,118 146,118 140,162" />
    <polygon points="156,120 172,114 170,158" />
    <polygon points="184,118 198,110 200,154" />
  </g>

  <!-- Pupil (masked) -->
  <g mask="url(#eyeMask)">
    <circle cx="140" cy="106" r="18" fill="#000" opacity="0">
      <animate attributeName="opacity" dur="3s" repeatCount="indefinite"
        values="0;1;1;0" keyTimes="0;0.16;0.76;1"/>
    </circle>
    <circle cx="140" cy="106" r="8" fill="#000" opacity="0">
      <animate attributeName="opacity" dur="3s" repeatCount="indefinite"
        values="0;1;1;0" keyTimes="0;0.16;0.76;1"/>
    </circle>
  </g>
</svg>
