<svg xmlns="http://www.w3.org/2000/svg" width="244" height="227" viewBox="18 17 244 227">
  <defs>
    <!-- Screen background gradient -->
    <linearGradient id="screenGradient" x1="0" y1="0" x2="1" y2="1">
      <stop offset="0%" stop-color="#E6F2FF"/>
      <stop offset="100%" stop-color="#EDE6FF"/>
    </linearGradient>
  </defs>

  <!-- Screen background -->
  <rect x="28" y="24" width="224" height="164" rx="20"
        fill="url(#screenGradient)" />

  <!-- Screen stroke -->
  <rect x="28" y="24" width="224" height="164" rx="20"
        fill="none" stroke="#000" stroke-width="14"
        stroke-linejoin="round" />

  <!-- Stand -->
  <!-- vertical stem -->
  <rect x="132" y="188" width="16" height="28" rx="4" fill="#000" />
  <!-- base -->
  <line x1="108" y1="230" x2="172" y2="230"
        stroke="#000" stroke-width="14" stroke-linecap="round" />

  <!-- Closed eye mark -->
  <g fill="none" stroke="#000" stroke-width="14" stroke-linejoin="round">
    <!-- Eyelid -->
    <path
      d="M 60 96 Q 140 140 220 96"
      stroke-linecap="round"
    />
  </g>

  <!-- Eyelashes -->
  <g fill="#000" stroke="none">
    <polygon points="82,110 96,118 80,150" />
    <polygon points="110,116 124,120 112,152" />
    <polygon points="134,120 146,120 140,156" />
    <polygon points="156,120 170,116 168,152" />
    <polygon points="184,118 198,110 200,150" />
  </g>
</svg>
